:SAMPLES-PER-SECOND 30
:FULLY-SPECIFIED
:DEGREES
435
root  4.85136 18.3012 -57.7728 -120.076 -0.831924 -175.771
RightUpLeg  -64.6048 4.41503 16.3696
RightLeg  108.728 22.4168 -16.4585
RightFoot  7.27431 -0.386544 1.9423
RightToes  -5.82073e-011 -3.18055e-015 -2.98177e-016
Spine  33.0111 -1.25305 8.59026
Spine1  -8.70553 1.35698 -7.3948
HEad  -16.7274 -0.260944 3.12603
LeftShoulder1  -3.88251e-019 9.70628e-020 -3.87848e-018
LeftArm  0.0517528 -31.0673 -66.8282
LeftForeArm  -1.26659 -1.13226 -5.90398
LeftHand  -9.34073 -9.04868 68.3061
RightShoulder  1.96819 6.87199 8.88077
RightArm  0.162145 19.4945 68.0942
RightForeArm  -0.205558 1.91753 -5.5768
RightHand  -10.2284 9.02714 -71.2405
LeftUpLeg  -64.909 4.81851 -2.45199
LeftLeg  115.597 -19.9816 12.5381
LeftFoot  -15.0724 -0.1315 -5.22839
LeftToes  -2.27483e-011 -5.53417e-011 9.36564e-012
436
root  4.81263 18.3347 -57.8516 -119.497 -0.605057 -176.626
RightUpLeg  -64.9654 3.71959 15.8327
RightLeg  108.135 22.6266 -17.3197
RightFoot  6.79214 -0.434551 2.2711
RightToes  -5.82073e-011 -3.18055e-015 -2.98177e-016
Spine  32.7994 -1.69076 8.65149
Spine1  -9.1776 0.79235 -7.04338
HEad  -16.5556 0.207757 3.07221
LeftShoulder1  -3.88251e-019 9.70628e-020 -3.87848e-018
LeftArm  -0.663918 -31.0047 -66.8275
LeftForeArm  -1.0426 -1.04712 -5.45214
LeftHand  -9.4696 -9.25975 68.2388
RightShoulder  1.82619 6.6923 8.09258
RightArm  0.484966 19.6465 69.2621
RightForeArm  0.173034 1.43685 -5.34356
RightHand  -10.3426 9.09299 -71.5995
LeftUpLeg  -65.2708 4.54261 -3.98131
LeftLeg  114.892 -20.381 13.5682
LeftFoot  -15.755 -0.176505 -5.76795
LeftToes  -2.27483e-011 -5.53417e-011 9.36564e-012
437
root  4.78516 18.3385 -57.9302 -119.028 -0.286728 -177.572
RightUpLeg  -65.2222 3.01817 15.1043
RightLeg  107.79 22.7609 -17.8598
RightFoot  6.30124 -0.421806 2.2652
RightToes  -5.82073e-011 -3.18055e-015 -2.98177e-016
Spine  32.3545 -2.05622 8.63333
Spine1  -9.21426 0.263931 -6.68211
HEad  -16.227 0.436618 3.40469
LeftShoulder1  -3.88251e-019 9.70628e-020 -3.87848e-018
LeftArm  -1.11041 -30.8409 -66.8877
LeftForeArm  -0.924666 -0.966197 -5.02536
LeftHand  -9.63326 -9.44367 68.4689
RightShoulder  1.72785 6.51112 7.60844
RightArm  0.709817 19.7176 70.1326
RightForeArm  0.51748 1.25516 -5.25695
RightHand  -10.4808 9.15465 -72.0953
LeftUpLeg  -65.3442 4.30807 -5.74003
LeftLeg  113.95 -20.7915 14.7855
LeftFoot  -15.9307 -0.194667 -6.12005
LeftToes  -2.27483e-011 -5.53417e-011 9.36564e-012
438
root  4.72094 18.3207 -57.9851 -118.787 0.401169 -177.76
RightUpLeg  -65.3499 2.95459 14.363
RightLeg  107.695 22.8471 -18.1172
RightFoot  5.96432 -0.346426 1.8682
RightToes  -5.82073e-011 -3.18055e-015 -2.98177e-016
Spine  31.8703 -2.29752 8.9196
Spine1  -8.87972 0.0807683 -7.13822
HEad  -15.7207 0.588268 4.1004
LeftShoulder1  -3.88251e-019 9.70628e-020 -3.87848e-018
LeftArm  -1.13026 -30.3379 -66.641
LeftForeArm  -1.42048 -0.93334 -4.86135
LeftHand  -9.65699 -9.41686 68.7002
RightShoulder  1.64198 6.33316 7.20134
RightArm  0.827229 19.5539 70.9098
RightForeArm  0.689599 1.52713 -5.31694
RightHand  -10.6531 9.2547 -72.6174
LeftUpLeg  -64.9913 4.86591 -7.44687
LeftLeg  112.73 -21.282 16.3757
LeftFoot  -16.0786 -0.203467 -6.14189
LeftToes  -2.27483e-011 -5.53417e-011 9.36564e-012
439
root  4.60887 18.3009 -58.0371 -118.603 1.388 -177.479
RightUpLeg  -65.5027 3.24347 13.4275
RightLeg  107.753 22.8476 -18.0753
RightFoot  5.74029 -0.27706 1.4811
RightToes  -5.82073e-011 -3.18055e-015 -2.98177e-016
Spine  31.5762 -2.60397 9.41585
Spine1  -8.6472 0.00727323 -8.28878
HEad  -15.1424 0.814914 4.86443
LeftShoulder1  -3.88251e-019 9.70628e-020 -3.87848e-018
LeftArm  -1.34219 -29.538 -66.0638
LeftForeArm  -1.98174 -0.899839 -4.69451
LeftHand  -9.627 -9.3408 68.8174
RightShoulder  1.56435 6.23631 6.74266
RightArm  0.942934 19.4624 71.8722
RightForeArm  0.956872 1.76246 -5.40593
RightHand  -10.7867 9.34629 -72.9636
LeftUpLeg  -64.5382 5.82869 -9.01782
LeftLeg  111.703 -21.6005 17.615
LeftFoot  -16.4969 -0.238053 -6.49121
LeftToes  -2.27483e-011 -5.53417e-011 9.36564e-012
440
root  4.48447 18.277 -58.107 -118.304 2.3909 -177.411
RightUpLeg  -65.8054 3.35029 12.2364
RightLeg  107.845 22.8034 -17.9117
RightFoot  5.61888 -0.270876 1.45605
RightToes  -5.82073e-011 -3.18055e-015 -2.98177e-016
Spine  31.3084 -2.67764 9.5151
Spine1  -8.6111 0.00072967 -8.80934
HEad  -14.6362 0.693891 5.31988
LeftShoulder1  -3.88251e-019 9.70628e-020 -3.87848e-018
LeftArm  -2.44711 -28.8324 -65.9297
LeftForeArm  -1.64774 -0.792444 -4.12795
LeftHand  -9.67213 -9.37665 68.934
RightShoulder  1.50338 6.17248 6.36191
RightArm  1.24602 19.6225 72.4922
RightForeArm  1.39799 1.62171 -5.26614
RightHand  -10.8487 9.38202 -73.1468
LeftUpLeg  -64.3082 6.2869 -10.3182
LeftLeg  111.395 -21.5101 17.6534
LeftFoot  -17.1119 -0.324711 -7.909
LeftToes  -2.27483e-011 -5.53417e-011 9.36564e-012
